<svg version="1.1" id="Layer_1" xmlns="http://www.w3.org/2000/svg" xmlns:xlink="http://www.w3.org/1999/xlink" x="0px" y="0px"
	 width="100%" viewBox="0 0 1024 1024" enable-background="new 0 0 1024 1024" xml:space="preserve">
<path fill="#282828" opacity="1.000000" stroke="none" 
	d="
M495.000000,1025.000000 
	C330.000000,1025.000000 165.500000,1025.000000 1.000000,1025.000000 
	C1.000000,683.666687 1.000000,342.333344 1.000000,1.000000 
	C342.333344,1.000000 683.666687,1.000000 1025.000000,1.000000 
	C1025.000000,342.333344 1025.000000,683.666687 1025.000000,1025.000000 
	C848.500000,1025.000000 672.000000,1025.000000 495.000000,1025.000000 
M628.838440,689.638306 
	C628.557678,701.042358 628.182556,712.445374 628.058289,723.851135 
	C628.024536,726.948059 628.747925,730.053284 629.667175,733.350037 
	C633.978455,734.579590 635.120117,732.707642 635.048157,728.568604 
	C634.843994,716.830322 634.841736,705.084167 635.035522,693.345642 
	C635.112061,688.709473 633.499695,687.207825 628.838440,689.638306 
M441.383850,701.730469 
	C441.247284,715.498169 441.110748,729.265869 441.432037,743.599304 
	C442.627014,743.717407 443.821991,743.835571 445.608459,743.365295 
	C445.697876,738.615417 445.787292,733.865479 446.398682,729.006226 
	C450.297089,731.988403 453.832336,735.640625 459.494354,734.827515 
	C465.553223,733.957458 471.207825,728.745117 472.841278,722.203857 
	C474.689178,714.803772 471.850189,706.732605 465.984863,702.711426 
	C460.416168,698.893616 455.038086,699.302246 448.588074,704.007141 
	C448.091492,704.369385 447.497253,704.597656 446.948395,704.888123 
	C447.045715,704.430603 447.143036,703.973145 447.240356,703.515625 
	C445.479401,702.723145 443.718445,701.930664 441.383850,701.730469 
M565.584534,492.599762 
	C572.510925,494.717743 577.177307,499.453125 580.917297,505.448669 
	C591.144714,521.844177 601.513062,538.151672 611.781189,554.521912 
	C622.442749,571.519226 638.064514,578.238220 657.669495,576.914612 
	C681.505859,575.305237 698.243408,558.339172 697.940430,534.491577 
	C697.787170,522.423889 695.744568,510.325775 693.892517,498.343994 
	C687.748047,458.593597 679.037048,419.429810 665.005127,381.645142 
	C661.721313,372.802429 657.387634,364.272156 652.782898,356.018860 
	C648.060608,347.554810 641.138794,340.681549 631.968933,337.286316 
	C611.585266,329.738953 591.146667,328.179962 571.054321,338.811951 
	C568.521301,340.152313 565.420105,341.057159 562.575867,341.073608 
	C529.255798,341.266174 495.934479,341.287506 462.613831,341.209717 
	C460.243347,341.204193 457.560760,340.584991 455.558868,339.369232 
	C444.717346,332.784973 433.005920,331.187103 420.526306,331.574371 
	C392.817139,332.434265 374.721619,346.219055 364.445282,371.435028 
	C347.855469,412.142883 338.846649,454.790619 332.105896,497.990601 
	C330.160614,510.457550 328.114899,523.097107 328.193207,535.644531 
	C328.294037,551.797791 335.264069,565.365906 350.695404,572.298096 
	C371.517365,581.651855 400.002625,578.461548 414.816681,553.274109 
	C424.354095,537.058167 435.036896,521.519226 445.036530,505.570282 
	C449.121216,499.055389 454.397980,494.378052 462.904327,492.386597 
	C465.718933,492.294220 468.533356,492.129028 471.348206,492.120758 
	C500.203430,492.035919 529.058716,491.976532 558.743591,491.993378 
	C559.853516,491.964905 560.963440,491.936432 562.805847,492.013702 
	C563.542603,492.089783 564.279419,492.165833 565.584534,492.599762 
M522.221252,653.255371 
	C522.231934,654.587280 521.881531,656.063721 522.342529,657.215332 
	C522.951416,658.736572 523.986694,660.916931 525.209656,661.197510 
	C528.157288,661.873901 528.019287,659.343018 528.012146,657.290527 
	C527.996521,652.795349 527.940552,648.298218 528.044800,643.805237 
	C528.177551,638.085388 530.998352,634.913879 535.857605,634.799377 
	C540.564941,634.688416 542.945679,637.478699 543.074402,643.493408 
	C543.174133,648.153076 542.881958,652.833984 543.243652,657.467957 
	C543.359985,658.958252 545.004211,660.329224 545.949463,661.754822 
	C546.935547,660.348938 548.665222,658.997131 548.772095,657.527283 
	C549.133606,652.558655 548.779602,647.542847 548.965332,642.555054 
	C549.149109,637.619812 552.150024,634.825989 556.870178,634.776550 
	C561.371521,634.729431 563.807495,637.176453 564.047241,642.488647 
	C564.279785,647.640930 563.993713,652.821899 564.366272,657.958984 
	C564.460388,659.256897 566.197815,660.435730 567.180054,661.669250 
	C568.093872,660.414673 569.725525,659.199158 569.796082,657.898743 
	C570.084473,652.587402 569.922363,647.250000 569.875000,641.922607 
	C569.831360,637.016541 568.682617,632.502319 563.902466,630.128418 
	C559.109863,627.748352 554.634521,628.776855 550.331238,631.894836 
	C549.284729,632.653137 546.677612,632.755249 545.799011,631.993347 
	C541.577087,628.331970 537.201050,628.293884 532.284546,630.146240 
	C530.967834,630.642395 529.144409,630.484924 527.769897,630.006409 
	C523.647888,628.571411 522.346680,629.301453 522.269470,633.842224 
	C522.164734,640.000732 522.231445,646.162109 522.221252,653.255371 
M608.563538,636.277405 
	C615.902466,632.438660 620.658142,635.006165 620.975830,643.119141 
	C621.164612,647.940796 620.829773,652.792175 621.214661,657.591248 
	C621.329956,659.029236 623.078003,660.336304 624.078064,661.703308 
	C625.012695,660.268311 626.660339,658.877136 626.751770,657.390320 
	C627.057678,652.416931 626.933228,647.404541 626.744751,642.415710 
	C626.268066,629.798462 618.046143,625.466797 607.116577,631.855652 
	C605.986511,632.516235 603.622925,632.776062 602.869446,632.087036 
	C598.729004,628.300598 594.304443,628.393555 589.355713,629.941223 
	C587.812866,630.423706 585.867859,629.990112 584.193665,629.601868 
	C581.209961,628.910034 579.206055,629.272827 579.217712,632.931702 
	C579.244690,641.422424 579.121704,649.917175 579.391724,658.399658 
	C579.429382,659.583557 581.341736,660.707642 582.386353,661.859375 
	C583.239502,660.701843 584.760437,659.582947 584.829956,658.380066 
	C585.127441,653.234802 584.866089,648.059937 585.059021,642.905212 
	C585.251099,637.772888 588.523193,634.663879 593.219543,634.776733 
	C597.674438,634.883789 599.862000,637.398010 599.973938,642.816406 
	C600.083984,648.141907 599.872498,653.480774 600.198914,658.789368 
	C600.262878,659.828796 602.142517,660.756531 603.184753,661.735718 
	C604.056702,660.757507 605.584534,659.839294 605.680542,658.790100 
	C605.997559,655.323120 605.520691,651.780945 605.869751,648.320251 
	C606.257996,644.471985 607.218018,640.681396 608.563538,636.277405 
M248.808212,633.611328 
	C245.131943,628.876770 241.575272,624.040527 237.698151,619.476624 
	C236.686905,618.286316 234.691315,617.487427 233.119583,617.439758 
	C232.501602,617.421082 231.250107,619.945618 231.233322,621.323486 
	C231.085312,633.477783 231.052689,645.636536 231.284927,657.788269 
	C231.311874,659.198242 233.157272,660.573547 234.159561,661.964905 
	C235.073639,660.517883 236.721527,659.098511 236.777298,657.619202 
	C237.046906,650.469238 236.800842,643.301208 236.953873,636.144226 
	C236.985245,634.677551 237.942642,633.230713 238.473160,631.774780 
	C239.753494,632.651306 241.341522,633.283081 242.264694,634.443665 
	C248.690872,642.522705 254.889175,650.784424 261.387299,658.803772 
	C262.692352,660.414246 264.969269,661.237244 266.798096,662.423340 
	C267.242096,662.059509 267.686127,661.695679 268.130127,661.331909 
	C268.130127,647.554382 268.184448,633.776184 268.011597,620.000793 
	C267.999664,619.051147 266.292633,618.122681 265.373871,617.184387 
	C264.580658,618.232117 263.143402,619.254578 263.101044,620.331848 
	C262.865723,626.317627 262.966705,632.316833 262.957489,638.311401 
	C262.952301,641.693298 262.956573,645.075134 262.956573,648.768677 
	C261.366913,648.423157 260.704559,648.484802 260.471069,648.197693 
	C256.694519,643.554138 252.972458,638.866150 248.808212,633.611328 
M696.198181,663.466858 
	C694.494141,664.692200 692.862244,666.818726 691.071472,666.962158 
	C686.856506,667.299927 682.490723,667.100098 678.329224,666.336731 
	C674.982849,665.722778 673.178040,666.074585 672.972961,669.714722 
	C678.626953,672.969116 687.674744,674.042419 693.260925,672.036621 
	C698.328003,670.217285 702.307007,666.825684 702.557678,661.348267 
	C703.027283,651.087952 702.692810,640.790894 702.692810,630.087769 
	C701.078064,630.087769 699.133667,629.548279 698.617310,630.178650 
	C696.011169,633.360168 693.786865,631.392029 691.242065,630.237122 
	C685.034607,627.419861 677.926147,629.549500 673.486206,635.346619 
	C669.186829,640.960144 669.131165,648.841187 673.351562,654.428284 
	C677.210876,659.537659 684.734070,661.459778 690.950012,658.920532 
	C692.676941,658.215149 694.398865,657.497437 697.046570,656.404053 
	C696.829956,659.254517 696.697571,660.996033 696.198181,663.466858 
M353.683014,709.990601 
	C353.263153,711.422363 352.694031,712.829163 352.449097,714.290222 
	C351.342285,720.893188 353.355835,726.523376 358.387604,730.842041 
	C363.225403,734.994324 368.628510,735.905212 374.594696,732.958252 
	C375.866882,732.329834 377.704254,732.795410 379.278687,732.842590 
	C380.999603,732.894104 382.717560,733.045044 384.933929,733.183777 
	C384.933929,718.935791 384.997742,705.332520 384.821198,691.732422 
	C384.805939,690.555786 383.202637,689.399719 382.337067,688.234070 
	C381.310913,689.428345 379.654236,690.500183 379.393616,691.842957 
	C378.895386,694.410522 379.250702,697.134583 379.142395,699.789246 
	C379.023468,702.704285 378.184631,704.161865 374.804626,702.539062 
	C365.720886,698.177734 359.468597,700.315796 353.683014,709.990601 
M572.940247,729.028442 
	C573.452515,730.463989 573.964172,733.117493 574.477173,733.117798 
	C576.385620,733.118774 578.294556,732.247620 580.203247,731.703857 
	C584.520142,733.104919 589.361389,734.976501 593.636841,734.097046 
	C602.707886,732.231201 607.727966,720.746033 604.459473,711.576965 
	C601.452454,703.141357 592.347778,697.410461 583.230225,702.722656 
	C580.046692,704.577454 578.989319,702.796570 578.756836,699.949280 
	C578.553650,697.461121 578.865112,694.873047 578.277283,692.495178 
	C577.910217,691.010376 576.296936,689.833618 575.242920,688.518616 
	C574.471741,689.895386 573.052063,691.262390 573.031311,692.650391 
	C572.854248,704.475525 572.931335,716.304504 572.940247,729.028442 
M668.843689,703.692566 
	C661.559448,698.568115 653.945862,699.222473 648.279297,705.460022 
	C642.575378,711.738708 642.154297,722.098022 647.343506,728.479187 
	C652.810303,735.201660 662.012878,737.012512 668.810059,732.466064 
	C670.047607,731.638428 670.619629,729.815552 671.498840,728.452148 
	C669.781616,728.295410 667.864197,727.568481 666.384521,728.088196 
	C661.862366,729.676392 657.491028,730.081787 653.603699,727.022339 
	C652.282837,725.982727 651.870605,723.788696 651.043213,722.122070 
	C652.577881,721.367859 654.076050,720.067993 655.654175,719.962463 
	C660.294434,719.652222 664.967285,719.863342 669.625732,719.781189 
	C674.604919,719.693359 675.761536,718.545410 674.302856,713.730164 
	C673.279297,710.351501 671.047119,707.338989 668.843689,703.692566 
M480.449066,647.045837 
	C480.366425,644.716980 480.314148,642.386536 480.195190,640.059509 
	C479.898407,634.254517 477.475983,630.871887 472.402191,629.111816 
	C466.955170,627.222229 459.423737,628.601807 456.544312,632.155823 
	C456.046112,632.770752 455.677551,634.217896 456.023743,634.630066 
	C456.639618,635.363342 457.842285,635.929565 458.809814,635.945679 
	C459.695282,635.960449 460.614471,634.741333 461.484009,634.783569 
	C465.291351,634.968201 469.177277,635.060120 472.824219,636.001343 
	C473.794189,636.251648 474.016937,639.397461 474.582733,641.213928 
	C473.141693,641.631042 471.724152,642.256042 470.254761,642.422058 
	C467.142334,642.773865 463.889923,642.439270 460.899353,643.195068 
	C455.601685,644.533936 452.594696,648.834167 453.097595,653.348572 
	C453.610626,657.954102 457.370728,661.516541 462.705963,661.911621 
	C465.128693,662.091003 467.606750,661.370850 470.069550,661.209717 
	C472.095215,661.077209 474.187561,660.876343 476.156891,661.228455 
	C479.034241,661.743042 480.749878,661.331970 480.623566,657.933899 
	C480.499939,654.608215 480.524017,651.277161 480.449066,647.045837 
M542.739502,713.354858 
	C542.810669,718.516357 542.863525,723.678223 542.961975,728.839172 
	C543.001892,730.935974 542.518860,733.820190 545.849243,733.245789 
	C546.994690,733.048279 548.512878,730.615967 548.551575,729.169556 
	C548.706970,723.354980 548.648926,717.499023 548.115112,711.709534 
	C547.205139,701.841064 539.795288,697.854004 530.549438,701.679138 
	C528.902588,702.360474 526.623596,702.190857 524.833374,701.698547 
	C521.749329,700.850281 519.990662,701.086304 520.024170,704.844421 
	C520.098511,713.172119 519.927490,721.504456 520.172913,729.825500 
	C520.210815,731.109192 521.925781,732.343445 522.865173,733.600525 
	C523.831055,732.365784 525.547791,731.178772 525.630005,729.887756 
	C525.946777,724.911804 525.655457,719.900879 525.752930,714.906128 
	C525.860046,709.416443 528.223694,706.666870 533.161072,705.961792 
	C538.283752,705.230225 540.682922,706.893005 542.739502,713.354858 
M751.128540,658.606812 
	C752.247925,659.682129 753.367371,660.757385 754.486816,661.832642 
	C755.278625,660.581665 756.716919,659.348389 756.751892,658.076538 
	C756.916504,652.096924 757.100830,646.066895 756.518433,640.129395 
	C755.623413,631.003357 747.929382,626.704529 739.456665,630.280884 
	C737.113647,631.269836 735.282532,632.199219 732.642334,630.422241 
	C730.603821,629.050232 728.278870,630.125610 728.250061,633.124207 
	C728.168457,641.607910 728.122864,650.096069 728.366333,658.573730 
	C728.396606,659.627197 730.256592,660.628174 731.268677,661.653442 
	C732.157715,660.535217 733.744202,659.458679 733.813782,658.291626 
	C734.100769,653.483948 733.878845,648.648193 733.935425,643.823792 
	C734.004578,637.926453 736.988586,634.914429 742.744751,634.797974 
	C747.898315,634.693665 750.682007,637.429199 750.954529,643.304443 
	C751.177856,648.120239 751.057556,652.952026 751.128540,658.606812 
M303.144409,632.449219 
	C295.618896,626.897217 286.928467,627.747803 281.485809,634.568970 
	C275.685883,641.837952 276.692810,653.090637 283.657410,658.837952 
	C290.791870,664.725464 300.126404,664.220154 307.049164,656.218689 
	C303.964630,656.218689 301.969666,655.774048 300.277405,656.301147 
	C294.979279,657.951294 290.047852,657.900269 285.920715,653.822144 
	C284.893768,652.807312 284.719330,650.929688 284.153015,649.448669 
	C285.469208,648.959106 286.773315,648.088684 288.103699,648.046509 
	C293.580597,647.872925 299.070221,647.806458 304.545776,647.986084 
	C308.320801,648.109802 309.592438,646.155396 308.532990,643.086182 
	C307.314362,639.555969 305.309082,636.297302 303.144409,632.449219 
M795.172119,640.706299 
	C791.740662,631.478760 784.340637,627.080872 776.289001,629.483948 
	C768.228699,631.889587 763.147522,641.108459 765.057007,649.862488 
	C767.544556,661.267090 781.984985,666.840637 791.215210,659.876648 
	C792.055420,659.242798 792.306152,657.827637 792.830627,656.775269 
	C791.551819,656.358215 790.264404,655.591736 788.996643,655.622986 
	C787.745483,655.653748 786.440125,657.034180 785.287720,656.876831 
	C781.338257,656.337585 777.343262,655.681824 773.595398,654.399170 
	C772.515381,654.029541 771.705200,651.373535 771.783447,649.816711 
	C771.817261,649.145142 774.401184,648.155884 775.864380,648.084412 
	C780.517334,647.857422 785.188110,648.011841 789.851807,647.986145 
	C796.160034,647.951355 796.354065,647.705261 795.172119,640.706299 
M380.935608,629.426941 
	C380.212402,630.526672 378.891937,631.611938 378.864899,632.728516 
	C378.712219,639.038452 378.530823,645.381287 379.002289,651.664673 
	C379.683838,660.747925 387.558868,665.003723 396.009705,661.488647 
	C397.858246,660.719666 400.210144,660.753296 402.265381,660.987122 
	C405.138580,661.313965 406.820862,660.753967 406.816528,657.505737 
	C406.805634,649.354004 406.979370,641.198608 406.751862,633.053894 
	C406.716705,631.795959 404.952728,630.586365 403.988251,629.354431 
	C403.043335,630.603577 401.374725,631.801514 401.282135,633.110901 
	C400.930817,638.079163 401.157410,643.085022 401.039795,648.073853 
	C400.902893,653.883545 398.052277,656.933044 392.712463,657.191895 
	C387.490601,657.445007 384.508392,654.571228 384.168945,648.412109 
	C383.894684,643.435364 384.239227,638.423279 383.928558,633.450623 
	C383.842010,632.064941 382.402802,630.763794 380.935608,629.426941 
M646.390076,662.822266 
	C651.392273,662.083374 656.394470,661.344482 661.983215,660.518921 
	C661.983215,655.060486 661.895752,649.101135 662.009766,643.145569 
	C662.108398,637.989807 660.992126,633.480286 656.021118,630.931335 
	C650.581726,628.142090 645.074280,628.208618 639.878052,631.480652 
	C638.811951,632.151978 638.434143,633.916382 637.739014,635.176819 
	C639.166626,635.409668 640.596252,635.848206 642.021423,635.834351 
	C645.435547,635.801208 648.908813,635.130920 652.229370,635.610229 
	C653.506958,635.794495 654.435059,638.400024 655.522339,639.902405 
	C654.010864,640.872070 652.617126,642.272827 650.964172,642.724304 
	C647.180908,643.757568 642.807556,643.512939 639.567627,645.357300 
	C637.220276,646.693481 635.020264,650.595093 635.114563,653.269470 
	C635.210083,655.978577 637.885742,658.900757 640.059204,661.112488 
	C641.260620,662.335083 643.749878,662.292053 646.390076,662.822266 
M444.653259,638.325195 
	C442.196320,629.391785 435.796173,626.385010 427.074707,629.877869 
	C425.597595,630.469421 423.554749,630.856812 422.193451,630.304016 
	C418.003784,628.602417 416.815033,629.015747 416.687469,633.616577 
	C416.470703,641.434387 416.549957,649.260254 416.502869,657.082764 
	C416.480804,660.751953 418.164124,661.838379 422.000122,660.278442 
	C422.000122,654.444946 421.908508,648.472839 422.027191,642.505005 
	C422.135010,637.082947 425.702393,633.927979 431.454742,633.894348 
	C436.487091,633.864929 438.986816,636.461121 439.146118,642.209167 
	C439.284454,647.200317 439.007507,652.209961 439.330048,657.184448 
	C439.417206,658.529236 441.015015,659.776001 441.919434,661.067749 
	C442.933655,659.732422 444.760773,658.432922 444.821442,657.055664 
	C445.084717,651.078491 444.832703,645.078674 444.653259,638.325195 
M510.866486,725.308105 
	C511.418732,723.228943 512.225525,721.179993 512.477112,719.065063 
	C513.351746,711.713196 508.820770,704.469482 501.790588,701.651184 
	C495.504364,699.131287 488.156830,701.152283 483.853241,706.585022 
	C477.649475,714.416443 479.200104,725.936829 487.249146,731.816162 
	C495.249207,737.659607 504.249176,735.398804 510.866486,725.308105 
M353.757202,646.585327 
	C355.952881,647.363770 358.443390,647.732239 360.259674,649.038269 
	C362.008087,650.295532 363.059357,652.522339 364.416931,654.323120 
	C362.413666,655.502625 360.386597,657.672058 358.412811,657.624634 
	C355.601593,657.557068 352.871307,655.704895 350.018219,654.947510 
	C349.009979,654.679871 347.742706,655.387817 346.593719,655.650330 
	C346.859467,656.789795 346.751343,658.301575 347.453369,659.006653 
	C351.223389,662.793091 359.234497,663.873352 364.361206,661.522644 
	C367.969421,659.868103 370.289520,657.263855 370.426483,653.120483 
	C370.559662,649.092773 368.302795,646.535828 364.921906,644.956543 
	C362.217590,643.693298 359.172455,643.093323 356.606781,641.625305 
	C355.149963,640.791748 354.353271,638.804504 353.259277,637.336792 
	C354.888672,636.205566 356.459351,634.263489 358.161713,634.140259 
	C360.500549,633.970886 363.058899,634.900635 365.304962,635.866760 
	C368.192596,637.108887 369.643311,636.353271 370.386963,633.285095 
	C366.418182,629.737122 361.846802,628.119995 356.626923,628.764221 
	C351.955505,629.340820 347.928162,633.155090 347.381256,637.374268 
	C346.798157,641.872620 349.240387,644.562744 353.757202,646.585327 
M422.445129,705.808472 
	C424.633881,706.562500 426.780396,707.531921 429.030487,707.973267 
	C430.047760,708.172852 431.758972,707.630066 432.249542,706.852539 
	C432.655823,706.208557 432.073303,704.362061 431.340973,703.675781 
	C427.613525,700.182983 420.307739,699.294250 415.868256,701.633179 
	C412.205383,703.562988 410.033600,706.514038 410.041199,710.795105 
	C410.048523,714.924927 412.721985,717.069641 416.085693,718.540100 
	C418.520111,719.604370 421.309631,720.047119 423.472839,721.475647 
	C424.982300,722.472534 426.795502,724.927551 426.480255,726.259644 
	C426.125885,727.757080 423.537537,729.692139 421.909760,729.702637 
	C419.254181,729.719971 416.381287,728.719910 413.982422,727.435242 
	C411.107544,725.895691 409.726257,726.579773 408.772217,729.330750 
	C413.649811,734.808411 421.548676,737.001831 427.208832,733.501648 
	C429.787628,731.907043 431.930969,728.499695 432.777130,725.493835 
	C433.818878,721.792847 431.261841,718.822937 427.822815,717.176636 
	C425.432495,716.032349 422.701141,715.533813 420.440948,714.204651 
	C418.506165,713.066833 417.024597,711.158264 415.342560,709.590637 
	C417.407715,708.309204 419.472870,707.027771 422.445129,705.808472 
M338.660126,633.593262 
	C333.691528,628.336060 325.638428,626.665771 320.808441,630.764343 
	C318.455109,632.761230 316.395386,636.508484 316.413361,639.449890 
	C316.427643,641.791382 319.459869,644.558777 321.778076,646.307678 
	C323.797546,647.831238 326.935242,647.809448 329.124390,649.190674 
	C330.948761,650.341858 332.113892,652.537781 333.571014,654.270996 
	C331.423065,655.490784 329.301605,657.629883 327.120361,657.692810 
	C324.519745,657.767639 321.912598,655.883118 319.217407,655.212708 
	C318.054657,654.923523 316.663849,655.551086 315.376617,655.762207 
	C315.783020,656.995850 315.818207,658.647034 316.657806,659.393372 
	C321.125305,663.364441 329.114105,664.439453 333.890076,661.024292 
	C336.268585,659.323486 338.134796,656.061157 338.893829,653.155457 
	C339.836304,649.547607 337.273712,646.859131 333.987701,645.384094 
	C330.812103,643.958496 327.401459,643.030945 324.305298,641.466553 
	C323.056000,640.835327 321.406494,638.844360 321.647430,637.915100 
	C322.017548,636.487671 323.817078,634.489685 325.090790,634.429077 
	C327.951569,634.292847 330.850098,635.442261 333.756866,635.583496 
	C335.338989,635.660400 336.969299,634.745911 338.660126,633.593262 
M557.139954,716.508789 
	C557.149780,720.834839 556.934753,725.180115 557.300964,729.475769 
	C557.416870,730.835999 559.084534,732.063904 560.042114,733.352356 
	C561.004639,732.079834 562.760681,730.831360 562.800171,729.530762 
	C563.047424,721.385437 563.017090,713.225525 562.779297,705.079102 
	C562.747009,703.971130 561.043274,702.911926 560.113464,701.830139 
	C559.136353,702.899109 557.446899,703.888123 557.316223,705.052063 
	C556.928711,708.504089 557.155457,712.025024 557.139954,716.508789 
M396.209320,733.530701 
	C399.513519,734.139282 400.128418,732.326355 400.090485,729.526672 
	C399.987152,721.908997 400.067596,714.289062 400.012177,706.670410 
	C399.996887,704.569214 400.258362,701.653625 397.056702,702.315247 
	C395.852905,702.563965 394.435638,705.286621 394.369904,706.931458 
	C394.079285,714.207458 394.167816,721.503174 394.308502,728.788086 
	C394.337769,730.303162 395.172119,731.802734 396.209320,733.530701 
M506.420990,638.640747 
	C506.430695,644.804932 506.522186,650.970398 506.421692,657.132751 
	C506.353027,661.342651 508.089325,662.505676 512.195923,660.877563 
	C512.195923,651.695251 512.290527,642.551208 512.075867,633.414307 
	C512.049133,632.274475 510.384888,631.173096 509.479340,630.053894 
	C508.540009,631.128479 507.241028,632.064697 506.759521,633.315491 
	C506.247681,634.645081 506.510742,636.272888 506.420990,638.640747 
M715.590820,630.229309 
	C712.134277,629.907654 712.414490,632.504883 712.390137,634.575195 
	C712.299988,642.229797 712.195190,649.891602 712.478027,657.536499 
	C712.528870,658.909851 714.388184,660.216248 715.412476,661.553589 
	C716.279602,660.249023 717.852722,658.968079 717.897278,657.635986 
	C718.153015,649.988220 718.132690,642.326782 717.985657,634.674133 
	C717.958008,633.234558 716.934570,631.814209 715.590820,630.229309 
M619.078918,730.730957 
	C619.078918,721.322632 619.078918,711.914307 619.078918,702.635498 
	C615.960999,701.730164 613.635986,701.376892 613.632874,705.044250 
	C613.625854,713.500244 613.657715,721.957886 613.855835,730.410583 
	C613.879883,731.435303 615.025269,733.264587 615.647461,733.263062 
	C616.774292,733.260376 617.898499,732.158813 619.078918,730.730957 
M613.240051,691.874207 
	C614.458374,693.252075 615.676758,694.629944 616.895081,696.007812 
	C617.941223,694.974854 619.812378,693.958618 619.833862,692.904785 
	C619.863525,691.443909 618.503235,689.954773 617.738098,688.477722 
	C616.275269,689.411560 614.812439,690.345398 613.240051,691.874207 
M716.564941,624.370972 
	C719.425537,622.791565 719.619385,620.357117 717.833923,618.149536 
	C717.140808,617.292480 713.892029,617.086548 713.697205,617.492004 
	C712.930420,619.088196 712.579590,621.085571 712.791138,622.848145 
	C712.872131,623.522766 714.875793,623.966736 716.564941,624.370972 
M512.137756,618.023071 
	C510.037842,615.894836 507.915405,615.943481 506.677002,618.654663 
	C506.120300,619.873352 506.381927,621.978638 507.132996,623.110291 
	C507.677063,623.929993 510.636230,624.332825 510.799713,624.020874 
	C511.667816,622.364563 511.992859,620.423645 512.137756,618.023071 
M394.811035,694.582092 
	C397.526215,696.882568 399.785828,696.631958 400.685364,693.022888 
	C400.970642,691.878235 400.099823,690.133362 399.223724,689.129395 
	C398.705414,688.535339 396.396759,688.441406 396.178925,688.834717 
	C395.319489,690.386658 394.968750,692.220337 394.811035,694.582092 
M560.471375,688.256287 
	C556.837769,688.879272 556.293884,691.436707 557.698669,694.026611 
	C558.224792,694.996643 561.547607,695.683167 562.405579,695.001465 
	C564.703674,693.175598 564.308228,690.707764 561.987183,688.766052 
	C561.746399,688.564636 561.400574,688.488770 560.471375,688.256287 
z"/>
<path fill="#5C5D5D" opacity="1.000000" stroke="none" 
	d="
M562.073364,491.907959 
	C560.963440,491.936432 559.853516,491.964905 557.943420,491.829254 
	C555.505676,491.451782 553.868408,491.054749 552.230530,491.052399 
	C524.375000,491.012299 496.519318,490.986877 468.664062,491.084106 
	C466.428619,491.091919 464.196411,492.019440 461.962677,492.519592 
	C454.397980,494.378052 449.121216,499.055389 445.036530,505.570282 
	C435.036896,521.519226 424.354095,537.058167 414.816681,553.274109 
	C400.002625,578.461548 371.517365,581.651855 350.695404,572.298096 
	C335.264069,565.365906 328.294037,551.797791 328.193207,535.644531 
	C328.114899,523.097107 330.160614,510.457550 332.105896,497.990601 
	C338.846649,454.790619 347.855469,412.142883 364.445282,371.435028 
	C374.721619,346.219055 392.817139,332.434265 420.526306,331.574371 
	C433.005920,331.187103 444.717346,332.784973 455.558868,339.369232 
	C457.560760,340.584991 460.243347,341.204193 462.613831,341.209717 
	C495.934479,341.287506 529.255798,341.266174 562.575867,341.073608 
	C565.420105,341.057159 568.521301,340.152313 571.054321,338.811951 
	C591.146667,328.179962 611.585266,329.738953 631.968933,337.286316 
	C641.138794,340.681549 648.060608,347.554810 652.782898,356.018860 
	C657.387634,364.272156 661.721313,372.802429 665.005127,381.645142 
	C679.037048,419.429810 687.748047,458.593597 693.892517,498.343994 
	C695.744568,510.325775 697.787170,522.423889 697.940430,534.491577 
	C698.243408,558.339172 681.505859,575.305237 657.669495,576.914612 
	C638.064514,578.238220 622.442749,571.519226 611.781189,554.521912 
	C601.513062,538.151672 591.144714,521.844177 580.917297,505.448669 
	C577.177307,499.453125 572.510925,494.717743 565.062561,492.327637 
	C563.718201,492.006348 562.895752,491.957153 562.073364,491.907959 
M454.369751,351.787018 
	C444.365997,345.242767 433.786041,341.981354 421.438293,342.454681 
	C398.679382,343.327179 382.988464,353.773712 374.827545,374.634583 
	C368.525055,390.744965 362.258423,407.077545 358.327789,423.862122 
	C351.269287,454.003479 345.695831,484.507111 340.130829,514.974243 
	C338.601959,523.344299 338.217590,532.254089 339.238861,540.682251 
	C340.790436,553.487183 348.848175,561.455200 361.545807,564.630127 
	C380.331390,569.327209 394.507599,564.044250 405.095581,547.851929 
	C415.126556,532.511414 425.371674,517.283630 434.704468,501.521851 
	C443.161163,487.239624 455.227264,480.962616 471.470917,481.062775 
	C498.966339,481.232330 526.471069,481.460907 553.957520,480.924988 
	C570.646362,480.599609 582.635620,486.960999 591.146729,501.334778 
	C600.820923,517.672913 611.086182,533.668640 621.365234,549.638977 
	C632.967712,567.665588 651.946838,568.864502 667.256592,563.744873 
	C682.674316,558.589172 690.690552,542.708862 687.529968,524.145874 
	C683.895264,502.798248 679.915894,481.508118 675.946594,460.219086 
	C670.770447,432.457214 662.611023,405.512115 652.846558,379.068176 
	C648.488464,367.265839 643.118713,355.387451 631.285828,349.394135 
	C613.851807,340.563843 595.582825,338.757324 577.635925,348.277618 
	C571.899353,351.320679 566.255188,352.690857 559.173645,351.700226 
	C556.867432,351.469299 554.561523,351.040924 552.254944,351.037292 
	C522.316589,350.990417 492.378113,350.982300 462.439789,351.042145 
	C459.979156,351.047089 457.519653,351.617676 454.369751,351.787018 
z"/>
<path fill="#5A5B5B" opacity="1.000000" stroke="none" 
	d="
M522.222900,652.788818 
	C522.231445,646.162109 522.164734,640.000732 522.269470,633.842224 
	C522.346680,629.301453 523.647888,628.571411 527.769897,630.006409 
	C529.144409,630.484924 530.967834,630.642395 532.284546,630.146240 
	C537.201050,628.293884 541.577087,628.331970 545.799011,631.993347 
	C546.677612,632.755249 549.284729,632.653137 550.331238,631.894836 
	C554.634521,628.776855 559.109863,627.748352 563.902466,630.128418 
	C568.682617,632.502319 569.831360,637.016541 569.875000,641.922607 
	C569.922363,647.250000 570.084473,652.587402 569.796082,657.898743 
	C569.725525,659.199158 568.093872,660.414673 567.180054,661.669250 
	C566.197815,660.435730 564.460388,659.256897 564.366272,657.958984 
	C563.993713,652.821899 564.279785,647.640930 564.047241,642.488647 
	C563.807495,637.176453 561.371521,634.729431 556.870178,634.776550 
	C552.150024,634.825989 549.149109,637.619812 548.965332,642.555054 
	C548.779602,647.542847 549.133606,652.558655 548.772095,657.527283 
	C548.665222,658.997131 546.935547,660.348938 545.949463,661.754822 
	C545.004211,660.329224 543.359985,658.958252 543.243652,657.467957 
	C542.881958,652.833984 543.174133,648.153076 543.074402,643.493408 
	C542.945679,637.478699 540.564941,634.688416 535.857605,634.799377 
	C530.998352,634.913879 528.177551,638.085388 528.044800,643.805237 
	C527.940552,648.298218 527.996521,652.795349 528.012146,657.290527 
	C528.019287,659.343018 528.157288,661.873901 525.209656,661.197510 
	C523.986694,660.916931 522.951416,658.736572 522.342529,657.215332 
	C521.881531,656.063721 522.231934,654.587280 522.222900,652.788818 
z"/>
<path fill="#5A5B5B" opacity="1.000000" stroke="none" 
	d="
M608.246338,636.571533 
	C607.218018,640.681396 606.257996,644.471985 605.869751,648.320251 
	C605.520691,651.780945 605.997559,655.323120 605.680542,658.790100 
	C605.584534,659.839294 604.056702,660.757507 603.184753,661.735718 
	C602.142517,660.756531 600.262878,659.828796 600.198914,658.789368 
	C599.872498,653.480774 600.083984,648.141907 599.973938,642.816406 
	C599.862000,637.398010 597.674438,634.883789 593.219543,634.776733 
	C588.523193,634.663879 585.251099,637.772888 585.059021,642.905212 
	C584.866089,648.059937 585.127441,653.234802 584.829956,658.380066 
	C584.760437,659.582947 583.239502,660.701843 582.386353,661.859375 
	C581.341736,660.707642 579.429382,659.583557 579.391724,658.399658 
	C579.121704,649.917175 579.244690,641.422424 579.217712,632.931702 
	C579.206055,629.272827 581.209961,628.910034 584.193665,629.601868 
	C585.867859,629.990112 587.812866,630.423706 589.355713,629.941223 
	C594.304443,628.393555 598.729004,628.300598 602.869446,632.087036 
	C603.622925,632.776062 605.986511,632.516235 607.116577,631.855652 
	C618.046143,625.466797 626.268066,629.798462 626.744751,642.415710 
	C626.933228,647.404541 627.057678,652.416931 626.751770,657.390320 
	C626.660339,658.877136 625.012695,660.268311 624.078064,661.703308 
	C623.078003,660.336304 621.329956,659.029236 621.214661,657.591248 
	C620.829773,652.792175 621.164612,647.940796 620.975830,643.119141 
	C620.658142,635.006165 615.902466,632.438660 608.246338,636.571533 
z"/>
<path fill="#5C5D5D" opacity="1.000000" stroke="none" 
	d="
M249.023132,633.899780 
	C252.972458,638.866150 256.694519,643.554138 260.471069,648.197693 
	C260.704559,648.484802 261.366913,648.423157 262.956573,648.768677 
	C262.956573,645.075134 262.952301,641.693298 262.957489,638.311401 
	C262.966705,632.316833 262.865723,626.317627 263.101044,620.331848 
	C263.143402,619.254578 264.580658,618.232117 265.373871,617.184387 
	C266.292633,618.122681 267.999664,619.051147 268.011597,620.000793 
	C268.184448,633.776184 268.130127,647.554382 268.130127,661.331909 
	C267.686127,661.695679 267.242096,662.059509 266.798096,662.423340 
	C264.969269,661.237244 262.692352,660.414246 261.387299,658.803772 
	C254.889175,650.784424 248.690872,642.522705 242.264694,634.443665 
	C241.341522,633.283081 239.753494,632.651306 238.473175,631.774780 
	C237.942642,633.230713 236.985245,634.677551 236.953873,636.144226 
	C236.800842,643.301208 237.046906,650.469238 236.777298,657.619202 
	C236.721527,659.098511 235.073639,660.517883 234.159576,661.964905 
	C233.157272,660.573547 231.311874,659.198242 231.284927,657.788269 
	C231.052689,645.636536 231.085312,633.477783 231.233322,621.323486 
	C231.250107,619.945618 232.501602,617.421082 233.119583,617.439758 
	C234.691315,617.487427 236.686905,618.286316 237.698151,619.476624 
	C241.575272,624.040527 245.131943,628.876770 249.023132,633.899780 
z"/>
<path fill="#5C5D5D" opacity="1.000000" stroke="none" 
	d="
M696.381714,663.102173 
	C696.697571,660.996033 696.829956,659.254517 697.046570,656.404053 
	C694.398865,657.497437 692.676941,658.215149 690.950012,658.920532 
	C684.734070,661.459778 677.210876,659.537659 673.351562,654.428284 
	C669.131165,648.841187 669.186829,640.960144 673.486206,635.346619 
	C677.926147,629.549500 685.034607,627.419861 691.242065,630.237122 
	C693.786865,631.392029 696.011169,633.360168 698.617310,630.178650 
	C699.133667,629.548279 701.078064,630.087769 702.692810,630.087769 
	C702.692810,640.790894 703.027283,651.087952 702.557678,661.348267 
	C702.307007,666.825684 698.328003,670.217285 693.260925,672.036621 
	C687.674744,674.042419 678.626953,672.969116 672.972961,669.714722 
	C673.178040,666.074585 674.982849,665.722778 678.329224,666.336731 
	C682.490723,667.100098 686.856506,667.299927 691.071472,666.962158 
	C692.862244,666.818726 694.494141,664.692200 696.381714,663.102173 
M695.966370,639.922791 
	C693.345642,635.681580 689.517883,633.688721 684.618042,634.496521 
	C680.366882,635.197571 677.340149,637.805664 676.190125,642.020935 
	C675.004517,646.366577 675.898682,650.298950 679.736816,653.091858 
	C683.322510,655.700989 689.075256,655.610840 692.872253,652.910278 
	C697.283203,649.772888 698.223389,645.586487 695.966370,639.922791 
z"/>
<path fill="#5B5C5B" opacity="1.000000" stroke="none" 
	d="
M353.830139,709.657471 
	C359.468597,700.315796 365.720886,698.177734 374.804626,702.539062 
	C378.184631,704.161865 379.023468,702.704285 379.142395,699.789246 
	C379.250702,697.134583 378.895386,694.410522 379.393616,691.842957 
	C379.654236,690.500183 381.310913,689.428345 382.337036,688.234070 
	C383.202637,689.399719 384.805939,690.555786 384.821198,691.732422 
	C384.997742,705.332520 384.933929,718.935791 384.933929,733.183777 
	C382.717560,733.045044 380.999603,732.894104 379.278687,732.842590 
	C377.704254,732.795410 375.866882,732.329834 374.594696,732.958252 
	C368.628510,735.905212 363.225403,734.994324 358.387604,730.842041 
	C353.355835,726.523376 351.342285,720.893188 352.449097,714.290222 
	C352.694031,712.829163 353.263153,711.422363 353.830139,709.657471 
M359.631989,710.379639 
	C359.014343,712.909180 357.885010,715.437195 357.877350,717.968567 
	C357.856476,724.879944 363.205841,729.736084 369.645508,729.130371 
	C375.864716,728.545410 380.444763,722.403870 379.378876,715.890930 
	C378.665771,711.533691 376.484131,708.033936 372.191772,706.508667 
	C367.546783,704.858093 363.381927,705.887207 359.631989,710.379639 
z"/>
<path fill="#5C5D5D" opacity="1.000000" stroke="none" 
	d="
M572.936279,728.580383 
	C572.931335,716.304504 572.854248,704.475525 573.031311,692.650391 
	C573.052063,691.262390 574.471741,689.895386 575.242920,688.518616 
	C576.296936,689.833618 577.910217,691.010376 578.277283,692.495178 
	C578.865112,694.873047 578.553650,697.461121 578.756836,699.949280 
	C578.989319,702.796570 580.046692,704.577454 583.230225,702.722656 
	C592.347778,697.410461 601.452454,703.141357 604.459473,711.576965 
	C607.727966,720.746033 602.707886,732.231201 593.636841,734.097046 
	C589.361389,734.976501 584.520142,733.104919 580.203247,731.703857 
	C578.294556,732.247620 576.385620,733.118774 574.477173,733.117798 
	C573.964172,733.117493 573.452515,730.463989 572.936279,728.580383 
M596.720154,726.280090 
	C597.810608,723.569397 599.554993,720.929871 599.859619,718.133545 
	C600.560547,711.698975 596.030640,706.473755 590.083496,706.026123 
	C584.098389,705.575623 578.898682,709.992249 578.227905,716.320923 
	C577.712402,721.185059 579.530334,725.216370 583.721497,727.744629 
	C587.941528,730.290283 592.235352,730.092529 596.720154,726.280090 
z"/>
<path fill="#5B5C5B" opacity="1.000000" stroke="none" 
	d="
M669.099121,703.927734 
	C671.047119,707.338989 673.279297,710.351501 674.302856,713.730164 
	C675.761536,718.545410 674.604919,719.693359 669.625732,719.781189 
	C664.967285,719.863342 660.294434,719.652222 655.654175,719.962463 
	C654.076050,720.067993 652.577881,721.367859 651.043213,722.122070 
	C651.870605,723.788696 652.282837,725.982727 653.603699,727.022339 
	C657.491028,730.081787 661.862366,729.676392 666.384521,728.088196 
	C667.864197,727.568481 669.781616,728.295410 671.498840,728.452148 
	C670.619629,729.815552 670.047607,731.638428 668.810059,732.466064 
	C662.012878,737.012512 652.810303,735.201660 647.343506,728.479187 
	C642.154297,722.098022 642.575378,711.738708 648.279297,705.460022 
	C653.945862,699.222473 661.559448,698.568115 669.099121,703.927734 
M650.684692,714.228333 
	C655.595886,714.454590 660.505127,714.770386 665.418884,714.878235 
	C669.269348,714.962891 669.531921,712.825867 667.916138,710.058228 
	C665.763916,706.372070 662.362671,704.852661 658.247253,705.589294 
	C653.885193,706.370117 650.527710,708.494812 650.684692,714.228333 
z"/>
<path fill="#5C5D5D" opacity="1.000000" stroke="none" 
	d="
M480.466156,647.497131 
	C480.524017,651.277161 480.499939,654.608215 480.623566,657.933899 
	C480.749878,661.331970 479.034241,661.743042 476.156891,661.228455 
	C474.187561,660.876343 472.095215,661.077209 470.069550,661.209717 
	C467.606750,661.370850 465.128693,662.091003 462.705963,661.911621 
	C457.370728,661.516541 453.610626,657.954102 453.097595,653.348572 
	C452.594696,648.834167 455.601685,644.533936 460.899353,643.195068 
	C463.889923,642.439270 467.142334,642.773865 470.254761,642.422058 
	C471.724152,642.256042 473.141693,641.631042 474.582733,641.213928 
	C474.016937,639.397461 473.794189,636.251648 472.824219,636.001343 
	C469.177277,635.060120 465.291351,634.968201 461.484009,634.783569 
	C460.614471,634.741333 459.695282,635.960449 458.809814,635.945679 
	C457.842285,635.929565 456.639618,635.363342 456.023743,634.630066 
	C455.677551,634.217896 456.046112,632.770752 456.544312,632.155823 
	C459.423737,628.601807 466.955170,627.222229 472.402191,629.111816 
	C477.475983,630.871887 479.898407,634.254517 480.195190,640.059509 
	C480.314148,642.386536 480.366425,644.716980 480.466156,647.497131 
M459.751862,649.373413 
	C458.313141,654.183289 459.463654,656.532043 463.725922,657.486389 
	C468.934631,658.652527 474.575470,655.982056 474.677979,651.850281 
	C474.716217,650.307190 472.752502,647.404602 471.653137,647.380981 
	C467.879333,647.299988 464.084045,648.219482 459.751862,649.373413 
z"/>
<path fill="#5C5D5D" opacity="1.000000" stroke="none" 
	d="
M542.666260,712.926880 
	C540.682922,706.893005 538.283752,705.230225 533.161072,705.961792 
	C528.223694,706.666870 525.860046,709.416443 525.752930,714.906128 
	C525.655457,719.900879 525.946777,724.911804 525.630005,729.887756 
	C525.547791,731.178772 523.831055,732.365784 522.865173,733.600525 
	C521.925781,732.343445 520.210815,731.109192 520.172913,729.825500 
	C519.927490,721.504456 520.098511,713.172119 520.024170,704.844421 
	C519.990662,701.086304 521.749329,700.850281 524.833374,701.698547 
	C526.623596,702.190857 528.902588,702.360474 530.549438,701.679138 
	C539.795288,697.854004 547.205139,701.841064 548.115112,711.709534 
	C548.648926,717.499023 548.706970,723.354980 548.551575,729.169556 
	C548.512878,730.615967 546.994690,733.048279 545.849243,733.245789 
	C542.518860,733.820190 543.001892,730.935974 542.961975,728.839172 
	C542.863525,723.678223 542.810669,718.516357 542.666260,712.926880 
z"/>
<path fill="#5A5B5B" opacity="1.000000" stroke="none" 
	d="
M751.109070,658.191772 
	C751.057556,652.952026 751.177856,648.120239 750.954529,643.304443 
	C750.682007,637.429199 747.898315,634.693665 742.744751,634.797974 
	C736.988586,634.914429 734.004578,637.926453 733.935425,643.823792 
	C733.878845,648.648193 734.100769,653.483948 733.813782,658.291626 
	C733.744202,659.458679 732.157715,660.535217 731.268677,661.653442 
	C730.256592,660.628174 728.396606,659.627197 728.366333,658.573730 
	C728.122864,650.096069 728.168457,641.607910 728.250061,633.124207 
	C728.278870,630.125610 730.603821,629.050232 732.642334,630.422241 
	C735.282532,632.199219 737.113647,631.269836 739.456665,630.280884 
	C747.929382,626.704529 755.623413,631.003357 756.518433,640.129395 
	C757.100830,646.066895 756.916504,652.096924 756.751892,658.076538 
	C756.716919,659.348389 755.278625,660.581665 754.486816,661.832642 
	C753.367371,660.757385 752.247925,659.682129 751.109070,658.191772 
z"/>
<path fill="#5C5D5D" opacity="1.000000" stroke="none" 
	d="
M303.394958,632.684937 
	C305.309082,636.297302 307.314362,639.555969 308.532990,643.086182 
	C309.592438,646.155396 308.320801,648.109802 304.545776,647.986084 
	C299.070221,647.806458 293.580597,647.872925 288.103699,648.046509 
	C286.773315,648.088684 285.469208,648.959106 284.153015,649.448669 
	C284.719330,650.929688 284.893768,652.807312 285.920715,653.822144 
	C290.047852,657.900269 294.979279,657.951294 300.277405,656.301147 
	C301.969666,655.774048 303.964630,656.218689 307.049164,656.218689 
	C300.126404,664.220154 290.791870,664.725464 283.657410,658.837952 
	C276.692810,653.090637 275.685883,641.837952 281.485809,634.568970 
	C286.928467,627.747803 295.618896,626.897217 303.394958,632.684937 
M301.171722,637.372986 
	C298.009613,633.494812 293.863129,632.876526 289.524506,634.509277 
	C286.152527,635.778320 283.776398,638.278748 283.948608,642.688721 
	C290.222443,642.688721 296.340729,642.688721 303.179749,642.688721 
	C302.509766,640.686584 302.060364,639.343628 301.171722,637.372986 
z"/>
<path fill="#5C5D5D" opacity="1.000000" stroke="none" 
	d="
M795.256348,641.053223 
	C796.354065,647.705261 796.160034,647.951355 789.851807,647.986145 
	C785.188110,648.011841 780.517334,647.857422 775.864380,648.084412 
	C774.401184,648.155884 771.817261,649.145142 771.783447,649.816711 
	C771.705200,651.373535 772.515381,654.029541 773.595398,654.399170 
	C777.343262,655.681824 781.338257,656.337585 785.287720,656.876831 
	C786.440125,657.034180 787.745483,655.653748 788.996643,655.622986 
	C790.264404,655.591736 791.551819,656.358215 792.830627,656.775269 
	C792.306152,657.827637 792.055420,659.242798 791.215210,659.876648 
	C781.984985,666.840637 767.544556,661.267090 765.057007,649.862488 
	C763.147522,641.108459 768.228699,631.889587 776.289001,629.483948 
	C784.340637,627.080872 791.740662,631.478760 795.256348,641.053223 
M786.102295,643.260803 
	C788.071106,643.065613 790.408325,643.284485 789.639648,640.057861 
	C788.731812,636.246704 783.487183,633.368958 778.783569,634.109497 
	C774.058411,634.853394 771.224487,638.131653 771.408813,643.282837 
	C775.983215,643.282837 780.589417,643.282837 786.102295,643.260803 
z"/>
<path fill="#5C5D5D" opacity="1.000000" stroke="none" 
	d="
M381.259888,629.425415 
	C382.402802,630.763794 383.842010,632.064941 383.928558,633.450623 
	C384.239227,638.423279 383.894684,643.435364 384.168945,648.412109 
	C384.508392,654.571228 387.490601,657.445007 392.712463,657.191895 
	C398.052277,656.933044 400.902893,653.883545 401.039795,648.073853 
	C401.157410,643.085022 400.930817,638.079163 401.282135,633.110901 
	C401.374725,631.801514 403.043335,630.603577 403.988251,629.354431 
	C404.952728,630.586365 406.716705,631.795959 406.751862,633.053894 
	C406.979370,641.198608 406.805634,649.354004 406.816528,657.505737 
	C406.820862,660.753967 405.138580,661.313965 402.265381,660.987122 
	C400.210144,660.753296 397.858246,660.719666 396.009705,661.488647 
	C387.558868,665.003723 379.683838,660.747925 379.002289,651.664673 
	C378.530823,645.381287 378.712219,639.038452 378.864899,632.728516 
	C378.891937,631.611938 380.212402,630.526672 381.259888,629.425415 
z"/>
<path fill="#5B5C5B" opacity="1.000000" stroke="none" 
	d="
M445.016968,743.953674 
	C443.821991,743.835571 442.627014,743.717407 441.342438,742.924927 
	C441.500885,740.292053 441.954102,738.334473 441.963226,736.374756 
	C442.018005,724.629517 441.970642,712.883789 441.957520,701.138184 
	C443.718445,701.930664 445.479401,702.723145 447.240356,703.515625 
	C447.143036,703.973145 447.045715,704.430603 446.948395,704.888123 
	C447.497253,704.597656 448.091492,704.369385 448.588074,704.007141 
	C455.038086,699.302246 460.416168,698.893616 465.984863,702.711426 
	C471.850189,706.732605 474.689178,714.803772 472.841278,722.203857 
	C471.207825,728.745117 465.553223,733.957458 459.494354,734.827515 
	C453.832336,735.640625 450.297089,731.988403 446.015381,729.441895 
	C445.427063,734.569580 445.222015,739.261597 445.016968,743.953674 
M456.634766,729.321289 
	C464.308228,728.584167 468.695007,723.361816 467.884277,715.928894 
	C467.162201,709.308777 461.802246,704.966919 455.460510,705.864929 
	C450.393066,706.582397 446.433685,711.155151 446.110046,716.663818 
	C445.749298,722.803162 449.343079,727.461121 456.634766,729.321289 
z"/>
<path fill="#5C5D5D" opacity="1.000000" stroke="none" 
	d="
M646.024292,662.820923 
	C643.749878,662.292053 641.260620,662.335083 640.059204,661.112488 
	C637.885742,658.900757 635.210083,655.978577 635.114563,653.269470 
	C635.020264,650.595093 637.220276,646.693481 639.567627,645.357300 
	C642.807556,643.512939 647.180908,643.757568 650.964172,642.724304 
	C652.617126,642.272827 654.010864,640.872070 655.522339,639.902405 
	C654.435059,638.400024 653.506958,635.794495 652.229370,635.610229 
	C648.908813,635.130920 645.435547,635.801208 642.021423,635.834351 
	C640.596252,635.848206 639.166626,635.409668 637.739014,635.176880 
	C638.434143,633.916382 638.811951,632.151978 639.878052,631.480652 
	C645.074280,628.208618 650.581726,628.142090 656.021118,630.931335 
	C660.992126,633.480286 662.108398,637.989807 662.009766,643.145569 
	C661.895752,649.101135 661.983215,655.060486 661.983215,660.518921 
	C656.394470,661.344482 651.392273,662.083374 646.024292,662.820923 
M644.495361,647.605896 
	C641.078308,648.900085 639.079529,651.052612 640.791809,654.832886 
	C642.237854,658.025513 647.632141,659.046265 651.954834,657.190369 
	C655.273254,655.765686 656.983093,653.300354 656.075378,649.725647 
	C655.836060,648.783325 654.250549,647.693115 653.168396,647.552063 
	C650.576965,647.214355 647.917236,647.400757 644.495361,647.605896 
z"/>
<path fill="#5C5D5D" opacity="1.000000" stroke="none" 
	d="
M444.710632,638.706177 
	C444.832703,645.078674 445.084717,651.078491 444.821442,657.055664 
	C444.760773,658.432922 442.933655,659.732422 441.919434,661.067749 
	C441.015015,659.776001 439.417206,658.529236 439.330048,657.184448 
	C439.007507,652.209961 439.284454,647.200317 439.146118,642.209167 
	C438.986816,636.461121 436.487091,633.864929 431.454742,633.894348 
	C425.702393,633.927979 422.135010,637.082947 422.027191,642.505005 
	C421.908508,648.472839 422.000122,654.444946 422.000122,660.278442 
	C418.164124,661.838379 416.480804,660.751953 416.502869,657.082764 
	C416.549957,649.260254 416.470703,641.434387 416.687469,633.616577 
	C416.815033,629.015747 418.003784,628.602417 422.193451,630.304016 
	C423.554749,630.856812 425.597595,630.469421 427.074707,629.877869 
	C435.796173,626.385010 442.196320,629.391785 444.710632,638.706177 
z"/>
<path fill="#5C5D5D" opacity="1.000000" stroke="none" 
	d="
M510.704681,725.636414 
	C504.249176,735.398804 495.249207,737.659607 487.249146,731.816162 
	C479.200104,725.936829 477.649475,714.416443 483.853241,706.585022 
	C488.156830,701.152283 495.504364,699.131287 501.790588,701.651184 
	C508.820770,704.469482 513.351746,711.713196 512.477112,719.065063 
	C512.225525,721.179993 511.418732,723.228943 510.704681,725.636414 
M485.811066,720.583984 
	C488.192963,727.560974 493.027954,730.861023 498.692139,729.375671 
	C504.557434,727.837585 508.081665,721.791138 506.916656,715.265137 
	C505.833191,709.195923 500.682312,705.300781 494.689850,706.019165 
	C488.607727,706.748352 485.238403,711.901794 485.811066,720.583984 
z"/>
<path fill="#5C5D5D" opacity="1.000000" stroke="none" 
	d="
M353.431458,646.427551 
	C349.240387,644.562744 346.798157,641.872620 347.381256,637.374268 
	C347.928162,633.155090 351.955505,629.340820 356.626923,628.764221 
	C361.846802,628.119995 366.418182,629.737122 370.386963,633.285095 
	C369.643311,636.353271 368.192596,637.108887 365.304962,635.866760 
	C363.058899,634.900635 360.500549,633.970886 358.161713,634.140259 
	C356.459351,634.263489 354.888672,636.205566 353.259277,637.336792 
	C354.353271,638.804504 355.149963,640.791748 356.606781,641.625305 
	C359.172455,643.093323 362.217590,643.693298 364.921906,644.956543 
	C368.302795,646.535828 370.559662,649.092773 370.426483,653.120483 
	C370.289520,657.263855 367.969421,659.868103 364.361206,661.522644 
	C359.234497,663.873352 351.223389,662.793091 347.453369,659.006653 
	C346.751343,658.301575 346.859467,656.789795 346.593719,655.650330 
	C347.742706,655.387817 349.009979,654.679871 350.018219,654.947510 
	C352.871307,655.704895 355.601593,657.557068 358.412811,657.624634 
	C360.386597,657.672058 362.413666,655.502625 364.416931,654.323120 
	C363.059357,652.522339 362.008087,650.295532 360.259674,649.038269 
	C358.443390,647.732239 355.952881,647.363770 353.431458,646.427551 
z"/>
<path fill="#5C5D5D" opacity="1.000000" stroke="none" 
	d="
M421.991577,705.777344 
	C419.472870,707.027771 417.407715,708.309204 415.342560,709.590637 
	C417.024597,711.158264 418.506165,713.066833 420.440948,714.204651 
	C422.701141,715.533813 425.432495,716.032349 427.822815,717.176636 
	C431.261841,718.822937 433.818878,721.792847 432.777130,725.493835 
	C431.930969,728.499695 429.787628,731.907043 427.208832,733.501648 
	C421.548676,737.001831 413.649811,734.808411 408.772217,729.330750 
	C409.726257,726.579773 411.107544,725.895691 413.982422,727.435242 
	C416.381287,728.719910 419.254181,729.719971 421.909760,729.702637 
	C423.537537,729.692139 426.125885,727.757080 426.480255,726.259644 
	C426.795502,724.927551 424.982300,722.472534 423.472839,721.475647 
	C421.309631,720.047119 418.520111,719.604370 416.085693,718.540100 
	C412.721985,717.069641 410.048523,714.924927 410.041199,710.795105 
	C410.033600,706.514038 412.205383,703.562988 415.868256,701.633179 
	C420.307739,699.294250 427.613525,700.182983 431.340973,703.675781 
	C432.073303,704.362061 432.655823,706.208557 432.249542,706.852539 
	C431.758972,707.630066 430.047760,708.172852 429.030487,707.973267 
	C426.780396,707.531921 424.633881,706.562500 421.991577,705.777344 
z"/>
<path fill="#5C5D5D" opacity="1.000000" stroke="none" 
	d="
M338.619019,633.935913 
	C336.969299,634.745911 335.338989,635.660400 333.756866,635.583496 
	C330.850098,635.442261 327.951569,634.292847 325.090790,634.429077 
	C323.817078,634.489685 322.017548,636.487671 321.647430,637.915100 
	C321.406494,638.844360 323.056000,640.835327 324.305298,641.466553 
	C327.401459,643.030945 330.812103,643.958496 333.987701,645.384094 
	C337.273712,646.859131 339.836304,649.547607 338.893829,653.155457 
	C338.134796,656.061157 336.268585,659.323486 333.890076,661.024292 
	C329.114105,664.439453 321.125305,663.364441 316.657806,659.393372 
	C315.818207,658.647034 315.783020,656.995850 315.376648,655.762207 
	C316.663849,655.551086 318.054657,654.923523 319.217407,655.212708 
	C321.912598,655.883118 324.519745,657.767639 327.120361,657.692810 
	C329.301605,657.629883 331.423065,655.490784 333.571014,654.270996 
	C332.113892,652.537781 330.948761,650.341858 329.124390,649.190674 
	C326.935242,647.809448 323.797546,647.831238 321.778076,646.307678 
	C319.459869,644.558777 316.427643,641.791382 316.413361,639.449890 
	C316.395386,636.508484 318.455109,632.761230 320.808441,630.764343 
	C325.638428,626.665771 333.691528,628.336060 338.619019,633.935913 
z"/>
<path fill="#5A5B5B" opacity="1.000000" stroke="none" 
	d="
M629.135254,688.826843 
	C633.499695,687.207825 635.112061,688.709473 635.035522,693.345642 
	C634.841736,705.084167 634.843994,716.830322 635.048157,728.568604 
	C635.120117,732.707642 633.978455,734.579590 629.414185,732.766052 
	C629.152588,717.730347 629.143921,703.278564 629.135254,688.826843 
z"/>
<path fill="#5B5C5B" opacity="1.000000" stroke="none" 
	d="
M557.140991,716.013916 
	C557.155457,712.025024 556.928711,708.504089 557.316223,705.052063 
	C557.446899,703.888123 559.136353,702.899109 560.113464,701.830139 
	C561.043274,702.911926 562.747009,703.971130 562.779297,705.079102 
	C563.017090,713.225525 563.047424,721.385437 562.800171,729.530762 
	C562.760681,730.831360 561.004639,732.079834 560.042114,733.352356 
	C559.084534,732.063904 557.416870,730.835999 557.300964,729.475769 
	C556.934753,725.180115 557.149780,720.834839 557.140991,716.013916 
z"/>
<path fill="#5A5B5B" opacity="1.000000" stroke="none" 
	d="
M395.922363,733.420044 
	C395.172119,731.802734 394.337769,730.303162 394.308502,728.788086 
	C394.167816,721.503174 394.079285,714.207458 394.369904,706.931458 
	C394.435638,705.286621 395.852905,702.563965 397.056702,702.315247 
	C400.258362,701.653625 399.996887,704.569214 400.012177,706.670410 
	C400.067596,714.289062 399.987152,721.908997 400.090485,729.526672 
	C400.128418,732.326355 399.513519,734.139282 395.922363,733.420044 
z"/>
<path fill="#5C5D5D" opacity="1.000000" stroke="none" 
	d="
M506.428223,638.205627 
	C506.510742,636.272888 506.247681,634.645081 506.759521,633.315491 
	C507.241028,632.064697 508.540009,631.128479 509.479340,630.053894 
	C510.384888,631.173096 512.049133,632.274475 512.075867,633.414307 
	C512.290527,642.551208 512.195923,651.695251 512.195923,660.877563 
	C508.089325,662.505676 506.353027,661.342651 506.421692,657.132751 
	C506.522186,650.970398 506.430695,644.804932 506.428223,638.205627 
z"/>
<path fill="#5C5D5D" opacity="1.000000" stroke="none" 
	d="
M715.980713,630.307129 
	C716.934570,631.814209 717.958008,633.234558 717.985657,634.674133 
	C718.132690,642.326782 718.153015,649.988220 717.897278,657.635986 
	C717.852722,658.968079 716.279602,660.249023 715.412476,661.553589 
	C714.388184,660.216248 712.528870,658.909851 712.478027,657.536499 
	C712.195190,649.891602 712.299988,642.229797 712.390137,634.575195 
	C712.414490,632.504883 712.134277,629.907654 715.980713,630.307129 
z"/>
<path fill="#5C5D5D" opacity="1.000000" stroke="none" 
	d="
M619.051392,731.123535 
	C617.898499,732.158813 616.774292,733.260376 615.647461,733.263062 
	C615.025269,733.264587 613.879883,731.435303 613.855835,730.410583 
	C613.657715,721.957886 613.625854,713.500244 613.632874,705.044250 
	C613.635986,701.376892 615.960999,701.730164 619.078918,702.635498 
	C619.078918,711.914307 619.078918,721.322632 619.051392,731.123535 
z"/>
<path fill="#686869" opacity="1.000000" stroke="none" 
	d="
M462.433502,492.453064 
	C464.196411,492.019440 466.428619,491.091919 468.664062,491.084106 
	C496.519318,490.986877 524.375000,491.012299 552.230530,491.052399 
	C553.868408,491.054749 555.505676,491.451782 557.528625,491.787598 
	C529.058716,491.976532 500.203430,492.035919 471.348206,492.120758 
	C468.533356,492.129028 465.718933,492.294220 462.433502,492.453064 
z"/>
<path fill="#5C5D5D" opacity="1.000000" stroke="none" 
	d="
M613.294800,691.576660 
	C614.812439,690.345398 616.275269,689.411560 617.738159,688.477722 
	C618.503235,689.954773 619.863525,691.443909 619.833862,692.904785 
	C619.812378,693.958618 617.941223,694.974854 616.895081,696.007812 
	C615.676758,694.629944 614.458374,693.252075 613.294800,691.576660 
z"/>
<path fill="#5C5D5D" opacity="1.000000" stroke="none" 
	d="
M716.284119,624.443359 
	C714.875793,623.966736 712.872131,623.522766 712.791138,622.848145 
	C712.579590,621.085571 712.930420,619.088196 713.697205,617.492004 
	C713.892029,617.086548 717.140808,617.292480 717.833923,618.149536 
	C719.619385,620.357117 719.425537,622.791565 716.284119,624.443359 
z"/>
<path fill="#5C5D5D" opacity="1.000000" stroke="none" 
	d="
M512.321899,618.302185 
	C511.992859,620.423645 511.667816,622.364563 510.799713,624.020874 
	C510.636230,624.332825 507.677063,623.929993 507.132996,623.110291 
	C506.381927,621.978638 506.120300,619.873352 506.677002,618.654663 
	C507.915405,615.943481 510.037842,615.894836 512.321899,618.302185 
z"/>
<path fill="#5B5C5B" opacity="1.000000" stroke="none" 
	d="
M394.620178,694.265747 
	C394.968750,692.220337 395.319489,690.386658 396.178925,688.834717 
	C396.396759,688.441406 398.705414,688.535339 399.223724,689.129395 
	C400.099823,690.133362 400.970642,691.878235 400.685364,693.022888 
	C399.785828,696.631958 397.526215,696.882568 394.620178,694.265747 
z"/>
<path fill="#5C5D5D" opacity="1.000000" stroke="none" 
	d="
M560.787476,688.305420 
	C561.400574,688.488770 561.746399,688.564636 561.987183,688.766052 
	C564.308228,690.707764 564.703674,693.175598 562.405579,695.001465 
	C561.547607,695.683167 558.224792,694.996643 557.698669,694.026611 
	C556.293884,691.436707 556.837769,688.879272 560.787476,688.305420 
z"/>
<path fill="#272727" opacity="1.000000" stroke="none" 
	d="
M628.986816,689.232544 
	C629.143921,703.278564 629.152588,717.730347 629.142517,732.668335 
	C628.747925,730.053284 628.024536,726.948059 628.058289,723.851135 
	C628.182556,712.445374 628.557678,701.042358 628.986816,689.232544 
z"/>
<path fill="#686869" opacity="1.000000" stroke="none" 
	d="
M441.670685,701.434326 
	C441.970642,712.883789 442.018005,724.629517 441.963226,736.374756 
	C441.954102,738.334473 441.500885,740.292053 441.113525,742.642090 
	C441.110748,729.265869 441.247284,715.498169 441.670685,701.434326 
z"/>
<path fill="#686869" opacity="1.000000" stroke="none" 
	d="
M445.312714,743.659485 
	C445.222015,739.261597 445.427063,734.569580 445.754425,729.496582 
	C445.787292,733.865479 445.697876,738.615417 445.312714,743.659485 
z"/>
<path fill="#686869" opacity="1.000000" stroke="none" 
	d="
M562.439575,491.960815 
	C562.895752,491.957153 563.718201,492.006348 564.778381,492.148743 
	C564.279419,492.165833 563.542603,492.089783 562.439575,491.960815 
z"/>
<path fill="#282728" opacity="1.000000" stroke="none" 
	d="
M559.949341,351.948853 
	C566.255188,352.690857 571.899353,351.320679 577.635925,348.277618 
	C595.582825,338.757324 613.851807,340.563843 631.285828,349.394135 
	C643.118713,355.387451 648.488464,367.265839 652.846558,379.068176 
	C662.611023,405.512115 670.770447,432.457214 675.946594,460.219086 
	C679.915894,481.508118 683.895264,502.798248 687.529968,524.145874 
	C690.690552,542.708862 682.674316,558.589172 667.256592,563.744873 
	C651.946838,568.864502 632.967712,567.665588 621.365234,549.638977 
	C611.086182,533.668640 600.820923,517.672913 591.146729,501.334778 
	C582.635620,486.960999 570.646362,480.599609 553.957520,480.924988 
	C526.471069,481.460907 498.966339,481.232330 471.470917,481.062775 
	C455.227264,480.962616 443.161163,487.239624 434.704468,501.521851 
	C425.371674,517.283630 415.126556,532.511414 405.095581,547.851929 
	C394.507599,564.044250 380.331390,569.327209 361.545807,564.630127 
	C348.848175,561.455200 340.790436,553.487183 339.238861,540.682251 
	C338.217590,532.254089 338.601959,523.344299 340.130829,514.974243 
	C345.695831,484.507111 351.269287,454.003479 358.327789,423.862122 
	C362.258423,407.077545 368.525055,390.744965 374.827545,374.634583 
	C382.988464,353.773712 398.679382,343.327179 421.438293,342.454681 
	C433.786041,341.981354 444.365997,345.242767 455.176514,351.909027 
	C490.638641,352.003632 525.294006,351.976257 559.949341,351.948853 
M421.402924,443.469696 
	C421.396149,445.802551 421.313965,448.138184 421.400665,450.467560 
	C421.523315,453.762299 421.048401,457.753265 425.963348,457.798035 
	C430.729401,457.841522 430.764954,454.113953 430.785889,450.653381 
	C430.820190,444.987976 430.976593,439.318909 430.822784,433.658386 
	C430.722656,429.972778 432.279053,428.621918 435.855164,428.669189 
	C442.017578,428.750702 448.183807,428.595306 454.347656,428.491730 
	C457.549561,428.437897 459.977478,427.300720 459.964081,423.606323 
	C459.950653,419.903198 457.503326,418.825073 454.304077,418.781128 
	C448.139832,418.696381 441.974640,418.566803 435.810822,418.608002 
	C432.212677,418.632050 430.734924,417.074432 430.814850,413.471985 
	C430.944183,407.643555 430.844604,401.808777 430.770599,395.977600 
	C430.731812,392.922394 429.448700,390.822693 426.070862,390.705872 
	C422.508575,390.582672 421.474121,392.839355 421.438721,395.858734 
	C421.378174,401.023499 421.423920,406.189423 421.377350,411.354431 
	C421.315491,418.211731 420.956604,418.566956 413.902344,418.630157 
	C408.737183,418.676422 403.571289,418.656921 398.405792,418.646301 
	C394.871552,418.639038 391.966583,419.496857 391.989990,423.787476 
	C392.014191,428.222626 395.218628,428.665497 398.594055,428.704437 
	C401.592987,428.739014 404.593628,428.656067 407.591858,428.713348 
	C423.418518,429.015747 421.131897,426.425110 421.402924,443.469696 
M590.003296,394.277802 
	C591.022339,395.366638 591.922485,396.606781 593.081482,397.517609 
	C597.560059,401.037140 603.644165,401.273956 607.982666,398.224701 
	C612.711121,394.901306 615.212280,388.184357 613.547424,383.280029 
	C611.815125,378.176697 606.445801,374.534241 600.744507,374.594635 
	C591.278503,374.694946 585.617249,384.366272 590.003296,394.277802 
M571.139771,432.805206 
	C572.098511,432.543579 573.086853,432.359711 574.011108,432.007599 
	C579.523804,429.907166 582.894836,425.046692 582.490173,419.853058 
	C582.040039,414.076172 577.165161,408.443604 571.834534,407.541199 
	C565.652466,406.494659 560.791992,409.081543 558.058777,414.872894 
	C553.866638,423.755554 559.360168,431.816254 571.139771,432.805206 
M591.194031,443.749664 
	C590.600403,444.746368 589.913208,445.699768 589.428406,446.746887 
	C586.589722,452.878693 588.605164,459.217865 594.410461,462.565430 
	C600.939331,466.330261 607.569336,465.036743 611.557739,459.220032 
	C615.407227,453.605927 614.847229,447.348694 610.105164,442.990356 
	C604.808167,438.121948 597.441284,438.192993 591.194031,443.749664 
M619.745728,419.669678 
	C620.121643,421.434662 620.216003,423.323090 620.925842,424.941620 
	C623.127686,429.962067 627.206177,432.615997 632.602783,432.880249 
	C637.993225,433.144196 641.595337,430.276001 644.097168,425.646912 
	C646.735657,420.764893 645.744507,416.475311 642.610535,412.228638 
	C639.458008,407.956818 635.365112,406.751526 630.348694,407.773621 
	C624.199463,409.026520 621.023865,413.037140 619.745728,419.669678 
z"/>
<path fill="#686869" opacity="1.000000" stroke="none" 
	d="
M559.561523,351.824554 
	C525.294006,351.976257 490.638641,352.003632 455.521454,351.978210 
	C457.519653,351.617676 459.979156,351.047089 462.439789,351.042145 
	C492.378113,350.982300 522.316589,350.990417 552.254944,351.037292 
	C554.561523,351.040924 556.867432,351.469299 559.561523,351.824554 
z"/>
<path fill="#272727" opacity="1.000000" stroke="none" 
	d="
M696.145996,640.280029 
	C698.223389,645.586487 697.283203,649.772888 692.872253,652.910278 
	C689.075256,655.610840 683.322510,655.700989 679.736816,653.091858 
	C675.898682,650.298950 675.004517,646.366577 676.190125,642.020935 
	C677.340149,637.805664 680.366882,635.197571 684.618042,634.496521 
	C689.517883,633.688721 693.345642,635.681580 696.145996,640.280029 
z"/>
<path fill="#272727" opacity="1.000000" stroke="none" 
	d="
M359.862366,710.062988 
	C363.381927,705.887207 367.546783,704.858093 372.191772,706.508667 
	C376.484131,708.033936 378.665771,711.533691 379.378876,715.890930 
	C380.444763,722.403870 375.864716,728.545410 369.645508,729.130371 
	C363.205841,729.736084 357.856476,724.879944 357.877350,717.968567 
	C357.885010,715.437195 359.014343,712.909180 359.862366,710.062988 
z"/>
<path fill="#272727" opacity="1.000000" stroke="none" 
	d="
M596.444092,726.557007 
	C592.235352,730.092529 587.941528,730.290283 583.721497,727.744629 
	C579.530334,725.216370 577.712402,721.185059 578.227905,716.320923 
	C578.898682,709.992249 584.098389,705.575623 590.083496,706.026123 
	C596.030640,706.473755 600.560547,711.698975 599.859619,718.133545 
	C599.554993,720.929871 597.810608,723.569397 596.444092,726.557007 
z"/>
<path fill="#272727" opacity="1.000000" stroke="none" 
	d="
M650.476379,713.889038 
	C650.527710,708.494812 653.885193,706.370117 658.247253,705.589294 
	C662.362671,704.852661 665.763916,706.372070 667.916138,710.058228 
	C669.531921,712.825867 669.269348,714.962891 665.418884,714.878235 
	C660.505127,714.770386 655.595886,714.454590 650.476379,713.889038 
z"/>
<path fill="#272727" opacity="1.000000" stroke="none" 
	d="
M460.024414,649.065491 
	C464.084045,648.219482 467.879333,647.299988 471.653137,647.380981 
	C472.752502,647.404602 474.716217,650.307190 474.677979,651.850281 
	C474.575470,655.982056 468.934631,658.652527 463.725922,657.486389 
	C459.463654,656.532043 458.313141,654.183289 460.024414,649.065491 
z"/>
<path fill="#272727" opacity="1.000000" stroke="none" 
	d="
M301.391357,637.686829 
	C302.060364,639.343628 302.509766,640.686584 303.179749,642.688721 
	C296.340729,642.688721 290.222443,642.688721 283.948608,642.688721 
	C283.776398,638.278748 286.152527,635.778320 289.524506,634.509277 
	C293.863129,632.876526 298.009613,633.494812 301.391357,637.686829 
z"/>
<path fill="#272727" opacity="1.000000" stroke="none" 
	d="
M785.648926,643.271851 
	C780.589417,643.282837 775.983215,643.282837 771.408813,643.282837 
	C771.224487,638.131653 774.058411,634.853394 778.783569,634.109497 
	C783.487183,633.368958 788.731812,636.246704 789.639648,640.057861 
	C790.408325,643.284485 788.071106,643.065613 785.648926,643.271851 
z"/>
<path fill="#272727" opacity="1.000000" stroke="none" 
	d="
M456.221527,729.277710 
	C449.343079,727.461121 445.749298,722.803162 446.110046,716.663818 
	C446.433685,711.155151 450.393066,706.582397 455.460510,705.864929 
	C461.802246,704.966919 467.162201,709.308777 467.884277,715.928894 
	C468.695007,723.361816 464.308228,728.584167 456.221527,729.277710 
z"/>
<path fill="#272727" opacity="1.000000" stroke="none" 
	d="
M644.890259,647.490723 
	C647.917236,647.400757 650.576965,647.214355 653.168396,647.552063 
	C654.250549,647.693115 655.836060,648.783325 656.075378,649.725647 
	C656.983093,653.300354 655.273254,655.765686 651.954834,657.190369 
	C647.632141,659.046265 642.237854,658.025513 640.791809,654.832886 
	C639.079529,651.052612 641.078308,648.900085 644.890259,647.490723 
z"/>
<path fill="#272727" opacity="1.000000" stroke="none" 
	d="
M485.736694,720.205444 
	C485.238403,711.901794 488.607727,706.748352 494.689850,706.019165 
	C500.682312,705.300781 505.833191,709.195923 506.916656,715.265137 
	C508.081665,721.791138 504.557434,727.837585 498.692139,729.375671 
	C493.027954,730.861023 488.192963,727.560974 485.736694,720.205444 
z"/>
<path fill="#5B5C5B" opacity="1.000000" stroke="none" 
	d="
M421.403137,442.977478 
	C421.131897,426.425110 423.418518,429.015747 407.591858,428.713348 
	C404.593628,428.656067 401.592987,428.739014 398.594055,428.704437 
	C395.218628,428.665497 392.014191,428.222626 391.989990,423.787476 
	C391.966583,419.496857 394.871552,418.639038 398.405792,418.646301 
	C403.571289,418.656921 408.737183,418.676422 413.902344,418.630157 
	C420.956604,418.566956 421.315491,418.211731 421.377350,411.354431 
	C421.423920,406.189423 421.378174,401.023499 421.438721,395.858734 
	C421.474121,392.839355 422.508575,390.582672 426.070862,390.705872 
	C429.448700,390.822693 430.731812,392.922394 430.770599,395.977600 
	C430.844604,401.808777 430.944183,407.643555 430.814850,413.471985 
	C430.734924,417.074432 432.212677,418.632050 435.810822,418.608002 
	C441.974640,418.566803 448.139832,418.696381 454.304077,418.781128 
	C457.503326,418.825073 459.950653,419.903198 459.964081,423.606323 
	C459.977478,427.300720 457.549561,428.437897 454.347656,428.491730 
	C448.183807,428.595306 442.017578,428.750702 435.855164,428.669189 
	C432.279053,428.621918 430.722656,429.972778 430.822784,433.658386 
	C430.976593,439.318909 430.820190,444.987976 430.785889,450.653381 
	C430.764954,454.113953 430.729401,457.841522 425.963348,457.798035 
	C421.048401,457.753265 421.523315,453.762299 421.400665,450.467560 
	C421.313965,448.138184 421.396149,445.802551 421.403137,442.977478 
z"/>
<path fill="#5C5D5D" opacity="1.000000" stroke="none" 
	d="
M589.804810,393.950073 
	C585.617249,384.366272 591.278503,374.694946 600.744507,374.594635 
	C606.445801,374.534241 611.815125,378.176697 613.547424,383.280029 
	C615.212280,388.184357 612.711121,394.901306 607.982666,398.224701 
	C603.644165,401.273956 597.560059,401.037140 593.081482,397.517609 
	C591.922485,396.606781 591.022339,395.366638 589.804810,393.950073 
z"/>
<path fill="#5C5D5D" opacity="1.000000" stroke="none" 
	d="
M570.737305,432.845520 
	C559.360168,431.816254 553.866638,423.755554 558.058777,414.872894 
	C560.791992,409.081543 565.652466,406.494659 571.834534,407.541199 
	C577.165161,408.443604 582.040039,414.076172 582.490173,419.853058 
	C582.894836,425.046692 579.523804,429.907166 574.011108,432.007599 
	C573.086853,432.359711 572.098511,432.543579 570.737305,432.845520 
z"/>
<path fill="#5C5D5D" opacity="1.000000" stroke="none" 
	d="
M591.426575,443.458954 
	C597.441284,438.192993 604.808167,438.121948 610.105164,442.990356 
	C614.847229,447.348694 615.407227,453.605927 611.557739,459.220032 
	C607.569336,465.036743 600.939331,466.330261 594.410461,462.565430 
	C588.605164,459.217865 586.589722,452.878693 589.428406,446.746887 
	C589.913208,445.699768 590.600403,444.746368 591.426575,443.458954 
z"/>
<path fill="#5C5D5D" opacity="1.000000" stroke="none" 
	d="
M619.788391,419.303528 
	C621.023865,413.037140 624.199463,409.026520 630.348694,407.773621 
	C635.365112,406.751526 639.458008,407.956818 642.610535,412.228638 
	C645.744507,416.475311 646.735657,420.764893 644.097168,425.646912 
	C641.595337,430.276001 637.993225,433.144196 632.602783,432.880249 
	C627.206177,432.615997 623.127686,429.962067 620.925842,424.941620 
	C620.216003,423.323090 620.121643,421.434662 619.788391,419.303528 
z"/>
</svg>